<svg width="362" height="96" viewBox="0 0 362 96" fill="none" xmlns="http://www.w3.org/2000/svg">
<path d="M41.4 16.9H2V6.09999H57.8V15.3L17.2 64.8V65.1H58.4V76H0.7V66.9L41.4 17.2V16.9ZM82.7805 76H71.5805V22.8H82.7805V76ZM72.2805 12.2C70.8805 10.8 70.1805 9.13333 70.1805 7.2C70.1805 5.26667 70.8805 3.6 72.2805 2.2C73.6805 0.799995 75.3471 0.0999937 77.2805 0.0999937C79.2138 0.0999937 80.8805 0.799995 82.2805 2.2C83.6805 3.6 84.3805 5.26667 84.3805 7.2C84.3805 9.13333 83.6805 10.8 82.2805 12.2C80.8805 13.6 79.2138 14.3 77.2805 14.3C75.3471 14.3 73.6805 13.6 72.2805 12.2ZM127.522 22C134.655 22 140.755 24.4667 145.822 29.4C150.889 34.3333 153.422 40.9 153.422 49.1C153.422 57.3 150.889 63.9667 145.822 69.1C140.822 74.2333 134.955 76.8 128.222 76.8C121.555 76.8 115.555 73.8667 110.222 68V95.4H99.0219V22.8H110.222V32.1C114.622 25.3667 120.389 22 127.522 22ZM110.022 49.5C110.022 54.5667 111.555 58.7333 114.622 62C117.689 65.2 121.422 66.8 125.822 66.8C130.222 66.8 134.055 65.2 137.322 62C140.589 58.8 142.222 54.6667 142.222 49.6C142.222 44.4667 140.622 40.2333 137.422 36.9C134.222 33.5 130.389 31.8 125.922 31.8C121.455 31.8 117.689 33.5 114.622 36.9C111.555 40.2333 110.022 44.4333 110.022 49.5ZM183.509 60C186.709 63.7333 191.043 65.6 196.509 65.6C201.976 65.6 206.309 63.7333 209.509 60C212.709 56.2667 214.309 51.2 214.309 44.8V6.09999H226.109V45.3C226.109 55.3667 223.343 63.1333 217.809 68.6C212.276 74 205.176 76.7 196.509 76.7C187.843 76.7 180.743 74 175.209 68.6C169.676 63.1333 166.909 55.3667 166.909 45.3V6.09999H178.709V44.8C178.709 51.2 180.309 56.2667 183.509 60ZM300.367 28.8C300.367 40.3333 295.334 47.6 285.267 50.6L303.567 76H288.567L271.867 52.5H256.367V76H244.567V6.09999H270.567C281.234 6.09999 288.867 7.89999 293.467 11.5C298.067 15.1 300.367 20.8667 300.367 28.8ZM271.067 41.8C277.734 41.8 282.267 40.7667 284.667 38.7C287.067 36.6333 288.267 33.3333 288.267 28.8C288.267 24.2 287.034 21.0667 284.567 19.4C282.101 17.6667 277.701 16.8 271.367 16.8H256.367V41.8H271.067ZM317.321 76V6.09999H329.121V64.8H361.021V76H317.321Z" fill="url(#paint0_linear_7_4)"/>
<defs>
<linearGradient id="paint0_linear_7_4" x1="-11.6875" y1="40" x2="365" y2="40" gradientUnits="userSpaceOnUse">
<stop/>
<stop offset="1" stop-color="#E3E729"/>
</linearGradient>
</defs>
</svg>
